<?xml version="1.0" standalone="no"?>
<!DOCTYPE svg PUBLIC "-//W3C//DTD SVG 20010904//EN"
 "http://www.w3.org/TR/2001/REC-SVG-20010904/DTD/svg10.dtd">
<svg version="1.0" xmlns="http://www.w3.org/2000/svg"
 width="612.000000pt" height="408.000000pt" viewBox="0 0 612.000000 408.000000"
 preserveAspectRatio="xMidYMid meet">

<g transform="translate(0.000000,408.000000) scale(0.100000,-0.100000)"
fill="#000000" stroke="none">
<path d="M0 3190 c0 -490 3 -890 8 -890 4 0 41 -7 82 -16 41 -8 121 -24 178
-34 57 -10 117 -27 135 -37 18 -11 70 -32 117 -47 47 -16 105 -37 130 -48 99
-44 513 -252 546 -274 19 -13 37 -24 39 -24 14 0 188 -110 232 -147 28 -24 56
-43 62 -43 6 0 28 -16 50 -35 44 -40 62 -44 54 -14 -6 22 -5 22 95 15 78 -5
107 -3 124 7 29 18 310 7 316 -11 4 -13 32 -16 32 -4 0 9 53 33 110 51 60 18
222 32 285 25 106 -13 192 -7 235 16 26 14 40 13 40 -3 0 -11 45 -13 235 -11
129 2 239 6 245 9 10 6 14 75 4 75 -3 0 -14 -5 -25 -10 -13 -7 -25 -8 -37 -1
-9 6 -11 11 -4 11 6 0 12 9 12 20 0 17 3 18 26 10 14 -6 27 -10 30 -10 10 0 3
59 -8 63 -20 9 12 27 47 27 17 0 48 2 70 5 l40 5 -35 -12 c-19 -6 -39 -18 -43
-25 -4 -7 -14 -13 -22 -13 -17 0 -37 -69 -33 -113 l3 -32 300 0 c165 0 383 3
485 6 102 4 216 4 253 0 37 -4 72 -4 78 -1 9 6 17 129 18 288 1 41 5 71 10 68
5 -4 7 -81 4 -181 l-4 -175 23 -9 c25 -10 345 -4 362 6 6 4 234 6 507 5 515
-2 593 -7 669 -47 16 -8 31 -15 35 -15 3 0 5 328 5 729 l0 729 -31 6 c-17 3
-35 3 -40 0 -5 -3 -69 -8 -142 -10 -73 -3 -177 -7 -232 -9 -275 -11 -996 0
-1386 21 -218 12 -248 8 -232 -33 3 -7 0 -20 -7 -28 -7 -9 -10 -18 -6 -22 9
-9 35 29 29 43 -6 17 37 29 48 13 4 -7 5 -18 2 -24 -4 -7 -2 -7 5 0 5 6 12 19
15 30 4 19 5 19 6 -1 1 -17 6 -20 26 -16 18 3 25 0 25 -11 0 -24 21 -32 32
-13 6 11 16 15 30 10 13 -4 24 -1 29 7 6 11 11 11 20 2 9 -9 8 -16 -5 -29 -10
-9 -15 -23 -12 -31 4 -11 1 -13 -14 -8 -15 5 -20 2 -20 -10 0 -22 39 -77 50
-70 10 6 62 -15 72 -30 5 -6 8 -4 8 5 0 11 4 10 12 -4 8 -15 8 -21 0 -24 -7
-2 -12 -8 -12 -13 0 -4 6 -6 14 -3 8 3 17 1 21 -5 8 -14 55 -14 55 -1 0 6 -10
10 -21 10 -18 0 -21 5 -17 30 4 28 -16 52 -24 29 -5 -15 -55 32 -60 55 -1 11
-9 21 -17 24 -8 3 -11 0 -7 -6 9 -15 -4 -42 -19 -42 -18 0 -30 20 -18 29 6 3
14 17 18 29 9 31 38 59 53 54 7 -2 19 2 27 8 13 11 15 7 15 -25 0 -29 3 -36
15 -31 8 3 22 9 30 12 9 4 15 1 15 -9 0 -16 -27 -30 -41 -21 -15 9 -40 -23
-32 -41 5 -15 8 -14 19 6 7 13 13 19 14 12 0 -7 12 -11 27 -10 22 2 29 -3 31
-19 2 -12 14 -26 28 -32 14 -7 24 -20 24 -32 0 -21 19 -28 21 -7 1 6 2 19 3
27 0 8 11 16 24 18 15 2 22 9 18 17 -3 8 -1 17 5 20 5 4 7 11 3 16 -8 13 -34
-9 -45 -38 -5 -13 -15 -23 -24 -23 -12 0 -14 9 -11 43 3 23 5 46 5 50 1 5 6 5
12 1 8 -4 9 1 5 17 -3 13 -3 18 0 12 3 -7 13 -13 23 -13 9 0 23 6 30 13 11 10
13 7 9 -15 -3 -15 -2 -27 1 -26 3 0 21 -6 39 -13 22 -9 35 -23 41 -44 5 -17
10 -22 10 -12 1 10 6 15 11 12 6 -3 10 -2 10 3 0 6 -7 13 -16 16 -21 8 -14 50
9 54 13 3 17 -3 17 -23 0 -25 3 -27 35 -23 40 5 45 -8 15 -40 -14 -15 -16 -23
-8 -28 7 -4 13 -3 15 3 2 6 13 9 23 6 23 -6 26 8 8 37 -19 30 -2 35 25 6 29
-31 37 -33 37 -7 0 11 9 21 21 24 27 7 20 31 -9 32 -12 0 -21 5 -19 10 1 6 8
9 15 9 6 -1 12 2 12 7 0 17 17 9 28 -13 l11 -23 0 23 c1 12 6 22 11 22 6 0 9
-12 8 -27 -2 -22 2 -29 20 -31 25 -4 25 -3 12 -36 -9 -25 -40 -37 -40 -16 0 6
-4 10 -10 10 -18 0 -11 -26 14 -49 l24 -23 12 22 c7 12 18 19 26 16 7 -3 18 3
24 14 16 30 30 24 30 -12 0 -18 4 -28 8 -23 4 6 16 10 27 10 16 0 20 6 18 27
-1 17 3 27 10 25 7 -1 12 9 11 25 -1 15 3 25 7 22 5 -3 9 -12 9 -20 0 -13 2
-13 17 1 15 16 18 15 34 -7 15 -18 19 -20 19 -6 0 11 6 16 20 13 11 -2 20 1
20 6 0 6 5 7 10 4 6 -4 8 -15 5 -24 -3 -10 1 -24 10 -31 12 -10 15 -9 15 5 0
17 1 17 19 1 12 -11 21 -14 26 -7 3 6 2 11 -3 11 -6 0 -8 9 -5 20 4 15 2 19
-10 14 -9 -3 -26 1 -39 10 -12 9 -17 16 -10 16 6 0 12 5 12 12 0 6 -7 4 -18
-6 -18 -15 -20 -15 -35 2 -19 20 -13 32 14 32 10 0 24 8 31 18 16 21 38 27 38
9 0 -7 9 -14 20 -15 62 -6 82 -4 89 6 5 8 12 5 25 -9 9 -11 23 -19 30 -16 9 4
11 -4 8 -27 -3 -17 -1 -27 4 -23 5 5 9 16 10 25 1 10 2 30 3 46 1 24 3 27 16
16 8 -7 15 -9 15 -4 0 4 7 -1 15 -12 20 -26 20 -85 0 -78 -8 4 -15 1 -15 -5 0
-6 -9 -11 -19 -11 -27 0 -30 -10 -17 -42 9 -21 15 -25 26 -17 11 8 12 12 3 16
-18 7 -16 26 2 20 8 -4 17 -2 20 4 4 5 10 7 14 5 13 -8 71 52 71 73 0 12 5 21
10 21 6 0 10 -11 10 -25 0 -16 6 -25 15 -25 8 0 15 5 15 11 0 5 4 8 9 4 5 -3
12 3 14 12 4 14 5 13 6 -4 1 -14 -5 -23 -14 -23 -8 0 -15 -7 -15 -16 0 -25 19
-54 36 -54 10 0 13 -6 9 -19 -3 -10 -1 -29 4 -42 l10 -24 0 26 c1 15 8 30 17
33 22 9 24 8 18 -9 -4 -10 3 -18 21 -25 15 -6 29 -19 32 -30 3 -11 9 -20 13
-20 4 0 11 -7 14 -16 7 -18 -30 -58 -62 -68 -12 -4 -22 -11 -22 -16 0 -6 -11
-5 -26 0 -14 6 -30 8 -35 4 -5 -3 -9 3 -9 13 0 10 -4 14 -8 8 -21 -29 -55 -36
-162 -34 -14 0 -115 0 -225 -1 -332 -2 -538 5 -543 18 -2 8 -8 8 -23 -1 -14
-9 -26 -9 -48 0 -18 6 -44 8 -63 4 -18 -4 -96 -4 -173 0 -77 4 -241 12 -365
18 -124 6 -247 13 -273 16 -27 3 -78 8 -115 11 -139 10 -317 35 -320 44 -2 6
-10 10 -18 10 -8 0 -14 7 -14 16 0 8 -4 13 -9 10 -14 -9 -41 5 -41 21 0 8 -4
12 -8 9 -5 -3 -42 4 -83 14 -41 11 -75 15 -77 10 -4 -10 -61 7 -77 23 -7 6 2
7 25 3 19 -3 74 -8 121 -11 88 -6 117 3 82 25 -12 7 -13 10 -3 7 8 -2 20 -13
25 -24 8 -16 15 -19 28 -12 10 6 17 6 17 1 0 -6 14 -12 30 -14 26 -4 30 -1 30
18 0 15 -8 24 -25 28 -31 8 -93 75 -115 125 -17 37 -32 101 -35 151 -1 14 -4
31 -8 37 -4 6 -3 13 3 15 5 1 -2 8 -15 15 -14 6 -25 7 -25 2 0 -5 5 -9 11 -9
6 0 4 -7 -5 -15 -8 -8 -19 -15 -25 -15 -6 0 -11 -4 -11 -10 0 -19 -38 -10 -43
10 -3 12 -14 20 -26 20 -15 0 -21 6 -21 21 0 19 -1 19 -16 5 -18 -19 -5 -17
-132 -19 -93 -1 -105 0 -118 18 -8 11 -14 31 -12 45 3 23 7 25 58 26 31 1 73
7 95 13 30 8 45 7 67 -3 30 -15 35 -8 17 26 -10 18 -9 20 5 15 8 -3 18 -2 21
2 3 5 31 8 62 7 50 -1 59 -4 68 -24 10 -23 25 -30 25 -12 0 6 10 2 22 -9 20
-19 22 -19 35 -3 13 16 14 16 9 -3 -19 -74 -19 -75 -2 -69 11 4 16 1 16 -10 0
-10 -7 -16 -17 -14 -48 8 -4 -171 63 -256 76 -97 196 -99 285 -6 49 52 69 102
71 175 1 54 12 58 32 11 14 -33 16 -34 83 -40 37 -4 566 -9 1176 -12 l1107 -6
0 486 0 487 -1745 -1 -1744 -1 -6 -32 c-8 -50 -11 -226 -3 -221 4 2 10 -1 14
-7 4 -8 9 -7 15 2 6 10 9 8 9 -9 0 -15 5 -22 13 -19 17 5 21 248 4 259 -24 15
3 19 59 9 33 -5 88 -13 124 -18 l65 -7 -50 -7 -50 -6 51 -1 c37 -2 54 -7 58
-18 3 -9 6 -64 6 -123 0 -155 8 -149 -174 -121 -116 18 -149 26 -156 41 -13
23 -13 220 0 253 l10 26 -635 0 -635 0 -1 -357 c0 -197 -2 -407 -4 -468 -1
-60 -6 -303 -10 -540 -4 -236 -8 -475 -11 -530 -2 -55 -4 -137 -4 -182 l0 -83
-31 0 c-28 0 -31 3 -25 23 7 24 21 749 32 1605 l6 532 -651 0 -651 0 0 -890z
m3207 714 c-3 -3 -12 -4 -19 -1 -8 3 -5 6 6 6 11 1 17 -2 13 -5z m-4 -68 c18
-3 18 -4 -3 -3 -19 2 -25 8 -26 27 -1 20 0 21 3 3 2 -12 14 -24 26 -27z m156
23 c13 -17 20 -33 16 -37 -4 -4 -10 -1 -13 7 -2 7 -13 21 -23 29 -11 9 -19 20
-19 24 0 16 15 6 39 -23z m168 25 c-3 -3 -12 -4 -19 -1 -8 3 -5 6 6 6 11 1 17
-2 13 -5z m54 -41 c-9 -16 -10 -14 -11 12 0 21 3 26 11 18 8 -8 8 -16 0 -30z
m119 30 c-8 -3 -18 -11 -22 -17 -5 -7 -8 -4 -8 7 0 11 7 17 23 16 15 0 17 -2
7 -6z m63 -13 c-4 -15 0 -20 13 -21 17 -1 17 -2 2 -6 -10 -2 -18 -11 -18 -18
0 -7 8 -16 18 -18 13 -4 11 -5 -5 -6 -17 -1 -23 5 -23 19 0 12 -5 17 -13 14
-8 -3 -13 4 -14 17 -2 17 1 18 13 9 11 -10 14 -9 14 9 0 11 4 21 9 21 5 0 7
-9 4 -20z m-538 0 c3 -6 -1 -7 -9 -4 -18 7 -21 14 -7 14 6 0 13 -4 16 -10z
m55 -6 c0 -13 -3 -14 -13 -5 -8 6 -17 8 -20 4 -4 -3 -7 -1 -7 5 0 7 9 12 20
12 12 0 20 -7 20 -16z m167 -6 c-3 -8 -6 -5 -6 6 -1 11 2 17 5 13 3 -3 4 -12
1 -19z m113 -6 c0 -15 -2 -15 -10 -2 -13 20 -13 33 0 25 6 -3 10 -14 10 -23z
m280 6 c0 -13 -5 -30 -10 -38 -7 -11 -10 -5 -10 23 0 20 5 37 10 37 6 0 10
-10 10 -22z m57 -8 c-9 -35 10 -43 24 -11 17 39 24 39 44 1 17 -34 30 -40 22
-11 -2 10 -1 25 4 32 7 11 13 9 29 -11 17 -21 21 -23 30 -10 7 12 10 7 10 -17
0 -38 -14 -43 -31 -12 l-11 21 -20 -22 c-19 -20 -21 -20 -38 -5 -15 14 -21 14
-39 3 -18 -11 -23 -11 -31 2 -8 13 -11 13 -19 1 -5 -7 -14 -10 -20 -7 -15 10
-14 26 3 26 8 0 17 11 20 25 4 15 11 23 17 19 6 -3 9 -14 6 -24z m227 17 c12
-9 17 -23 14 -42 -3 -26 -8 -30 -35 -33 -18 -2 -33 1 -33 7 0 5 12 9 27 8 19
-1 28 3 31 17 6 27 -13 42 -33 26 -19 -15 -28 -9 -19 14 7 19 24 21 48 3z
m-599 -40 c16 -5 15 -5 -4 -4 -14 1 -26 9 -28 17 -3 10 -2 11 4 4 4 -7 17 -14
28 -17z m95 -3 c0 -8 -4 -12 -10 -9 -5 3 -10 13 -10 21 0 8 5 12 10 9 6 -3 10
-13 10 -21z m-200 0 c0 -2 -7 -4 -15 -4 -8 0 -15 4 -15 10 0 5 7 7 15 4 8 -4
15 -8 15 -10z m300 -10 c0 -2 -11 -4 -25 -4 -14 0 -25 4 -25 9 0 4 11 6 25 3
14 -2 25 -6 25 -8z m-1116 -80 c3 -8 2 -12 -4 -9 -6 3 -10 10 -10 16 0 14 7
11 14 -7z m216 -154 c0 -5 -2 -10 -4 -10 -3 0 -8 5 -11 10 -3 6 -1 10 4 10 6
0 11 -4 11 -10z m216 -24 c109 -14 234 -28 277 -31 42 -4 77 -11 77 -17 0 -10
-14 -9 -145 9 -16 2 -52 5 -80 8 -88 7 -169 16 -186 21 -9 2 -32 7 -50 9 -39
6 -107 22 -98 24 3 1 95 -10 205 -23z m484 -57 c40 -10 105 -47 97 -55 -3 -3
-16 0 -29 7 -38 22 -90 38 -140 45 -27 4 -48 10 -48 14 0 9 66 3 120 -11z
m-420 -79 c-8 -5 -17 -7 -19 -4 -3 3 1 9 9 14 8 5 17 7 19 4 3 -3 -1 -9 -9
-14z m-672 -14 c26 2 101 6 167 9 66 3 129 6 140 9 26 5 55 -11 55 -30 0 -8
-8 -17 -17 -20 -10 -3 -30 -12 -46 -20 -15 -9 -37 -14 -50 -12 -12 1 -28 -1
-35 -6 -15 -9 -224 -10 -253 -1 -21 7 -26 45 -6 45 7 1 4 6 -7 15 -11 9 -15
18 -10 27 7 10 9 9 12 -3 2 -13 13 -16 50 -13z m916 15 c3 -4 -1 -17 -8 -27
-13 -17 -14 -17 -13 9 2 27 11 35 21 18z m326 -31 c11 -22 19 -40 17 -40 -3 0
-16 18 -31 40 -14 22 -22 40 -16 40 5 0 19 -18 30 -40z m-59 5 c36 -19 71 -69
67 -97 -6 -43 -34 -31 -87 36 -28 36 -51 67 -51 69 0 9 47 4 71 -8z m-683 -22
c-10 -2 -26 -2 -35 0 -10 3 -2 5 17 5 19 0 27 -2 18 -5z m55 0 c-7 -2 -19 -2
-25 0 -7 3 -2 5 12 5 14 0 19 -2 13 -5z m-156 -11 c8 -5 3 -12 -17 -19 -27
-10 -30 -9 -30 8 0 20 24 25 47 11z m731 -42 c17 -11 32 -21 32 -22 0 -2 4
-19 10 -38 l9 -35 -20 25 c-11 14 -33 40 -49 58 -33 37 -28 40 18 12z m-73
-20 c0 -13 -6 -25 -12 -27 -16 -6 -27 21 -19 43 9 23 31 11 31 -16z m235 8 c0
-7 3 -31 6 -53 5 -27 3 -37 -3 -30 -15 14 -26 95 -13 95 5 0 10 -6 10 -12z
m-855 -178 c3 -5 -1 -10 -9 -10 -9 0 -16 5 -16 10 0 6 4 10 9 10 6 0 13 -4 16
-10z m529 -44 c29 -51 32 -66 12 -66 -23 0 -56 50 -54 81 3 40 12 36 42 -15z
m1429 -67 c15 0 17 -2 7 -6 -8 -4 -20 -13 -27 -22 -10 -13 -11 -10 -11 19 1
19 3 29 5 23 3 -7 14 -13 26 -14z m54 -1 c-3 -8 -6 -5 -6 6 -1 11 2 17 5 13 3
-3 4 -12 1 -19z m763 1 c0 -5 -4 -9 -10 -9 -5 0 -10 7 -10 16 0 8 5 12 10 9 6
-3 10 -10 10 -16z m-2350 7 c0 -3 -4 -8 -10 -11 -5 -3 -10 -1 -10 4 0 6 5 11
10 11 6 0 10 -2 10 -4z m1390 -6 c0 -5 -4 -10 -9 -10 -6 0 -13 5 -16 10 -3 6
1 10 9 10 9 0 16 -4 16 -10z m550 -10 c0 -27 -17 -34 -51 -20 -41 18 -36 35
11 37 33 2 40 -1 40 -17z m707 -7 c-3 -3 -11 -2 -17 2 -9 6 -9 10 1 16 14 8
27 -7 16 -18z m-917 -4 c0 -5 -9 -9 -20 -9 -11 0 -20 6 -20 14 0 9 7 12 20 9
11 -3 20 -9 20 -14z m86 -7 c6 -12 14 -19 17 -15 4 3 7 1 7 -5 0 -5 2 -17 5
-25 5 -10 -2 -14 -26 -13 -27 1 -34 6 -41 31 -15 55 14 75 38 27z m704 -90 c0
-15 -2 -15 -10 -2 -8 12 -10 12 -10 1 0 -8 -3 -12 -6 -8 -4 3 -4 13 0 22 7 20
26 10 26 -13z m62 -4 c-7 -7 -12 -8 -12 -2 0 14 12 26 19 19 2 -3 -1 -11 -7
-17z m-2807 -6 c-9 -9 -35 -11 -35 -3 0 14 12 20 26 14 8 -3 12 -8 9 -11z
m2785 -42 c0 -5 -4 -10 -9 -10 -6 0 -13 5 -16 10 -3 6 1 10 9 10 9 0 16 -4 16
-10z m40 0 c0 -5 -4 -10 -10 -10 -5 0 -10 5 -10 10 0 6 5 10 10 10 6 0 10 -4
10 -10z m143 -37 c-7 -2 -14 -17 -14 -31 -1 -18 -3 -21 -6 -9 -6 24 3 47 19
46 10 0 10 -2 1 -6z m-83 -13 c0 -5 -4 -10 -10 -10 -5 0 -10 5 -10 10 0 6 5
10 10 10 6 0 10 -4 10 -10z m80 -68 c0 -4 -9 -13 -20 -20 -16 -10 -20 -10 -20
2 0 8 6 17 13 19 19 8 27 8 27 -1z m-110 -22 c0 -5 -4 -10 -10 -10 -5 0 -10 5
-10 10 0 6 5 10 10 10 6 0 10 -4 10 -10z m-45 -30 c3 -5 1 -10 -4 -10 -6 0
-11 5 -11 10 0 6 2 10 4 10 3 0 8 -4 11 -10z m-2885 -35 c-10 -12 -9 -15 6
-16 11 -1 22 -1 27 0 4 0 7 -3 7 -7 0 -5 9 -20 21 -33 11 -13 18 -31 16 -41
-3 -10 0 -18 6 -19 8 0 8 -2 0 -6 -10 -3 -9 -9 1 -26 15 -24 20 -97 8 -97 -5
0 -6 -16 -4 -36 4 -28 2 -35 -8 -29 -10 6 -12 4 -7 -8 4 -10 1 -17 -6 -17 -7
-1 -2 -9 11 -20 21 -17 21 -19 5 -29 -14 -8 -15 -10 -3 -11 13 0 13 -1 0 -10
-22 -14 -36 5 -19 27 12 16 12 17 -2 6 -9 -7 -19 -10 -23 -6 -4 4 -4 0 0 -10
5 -14 0 -17 -31 -17 -21 0 -67 5 -102 12 -62 11 -64 13 -58 37 4 14 13 39 21
55 7 15 23 64 35 107 12 44 25 82 30 84 4 3 6 12 2 20 -3 8 0 15 6 15 6 0 11
4 11 9 0 24 32 81 46 81 14 0 14 -3 4 -15z m-2111 -251 c3 -3 -1 -9 -8 -13
-10 -6 -11 -18 -7 -37 4 -16 8 -42 9 -59 2 -26 -2 -30 -25 -33 -26 -3 -28 -1
-28 33 0 19 -6 51 -14 69 -11 26 -11 37 -3 46 11 11 63 7 76 -6z m1748 -388
c32 -101 67 -156 99 -156 8 0 14 -4 14 -9 0 -12 -44 -22 -48 -11 -2 6 -7 8
-12 5 -12 -7 -32 29 -69 124 -40 103 -49 151 -30 151 9 0 26 -39 46 -104z
m1903 79 c0 -8 -4 -15 -10 -15 -5 0 -10 7 -10 15 0 8 5 15 10 15 6 0 10 -7 10
-15z m-710 -189 c0 -3 -5 -17 -10 -32 -10 -25 -12 -26 -27 -11 -13 13 -14 19
-3 31 11 14 40 22 40 12z m-1199 -16 c31 -17 25 -59 -11 -71 -16 -6 -30 -17
-30 -24 0 -7 -8 -19 -17 -26 -9 -8 -14 -9 -10 -3 4 7 1 24 -7 39 -19 36 -7 77
25 86 13 4 25 7 27 8 2 1 12 -4 23 -9z m1089 -20 c-14 -4 -36 -8 -50 -8 -22 0
-22 1 5 8 17 4 39 8 50 8 16 0 15 -2 -5 -8z m-88 -7 c-7 -3 -25 -16 -39 -29
-31 -28 -43 -30 -42 -6 0 10 3 12 6 4 3 -8 11 -4 25 13 11 14 29 25 41 24 12
0 16 -3 9 -6z"/>
<path d="M831 2344 c0 -11 3 -14 6 -6 3 7 2 16 -1 19 -3 4 -6 -2 -5 -13z"/>
<path d="M2708 4043 c7 -3 16 -2 19 1 4 3 -2 6 -13 5 -11 0 -14 -3 -6 -6z"/>
<path d="M2758 4033 c12 -2 30 -2 40 0 9 3 -1 5 -23 4 -22 0 -30 -2 -17 -4z"/>
<path d="M2748 3783 c7 -3 16 -2 19 1 4 3 -2 6 -13 5 -11 0 -14 -3 -6 -6z"/>
<path d="M3243 3323 c4 -6 2 -13 -5 -15 -7 -3 -8 -7 -2 -11 5 -3 16 -2 22 2
10 6 9 11 -4 22 -10 8 -15 9 -11 2z"/>
<path d="M3261 3264 c0 -11 3 -14 6 -6 3 7 2 16 -1 19 -3 4 -6 -2 -5 -13z"/>
<path d="M3804 3099 c-6 -11 37 -22 67 -17 18 2 14 6 -19 14 -23 6 -45 8 -48
3z"/>
<path d="M3960 3090 c0 -9 32 -30 46 -30 4 0 -1 9 -11 20 -19 21 -35 26 -35
10z"/>
<path d="M4020 3091 c0 -6 5 -13 10 -16 6 -3 10 1 10 9 0 9 -4 16 -10 16 -5 0
-10 -4 -10 -9z"/>
<path d="M4163 2995 c-28 -12 -32 -55 -5 -55 21 0 45 36 35 53 -6 9 -14 10
-30 2z"/>
<path d="M5378 2963 c7 -3 16 -2 19 1 4 3 -2 6 -13 5 -11 0 -14 -3 -6 -6z"/>
<path d="M5467 2946 c-4 -9 -14 -12 -25 -9 -21 5 -44 -18 -24 -25 7 -2 12 -11
12 -19 0 -11 -7 -14 -22 -10 -17 5 -26 0 -34 -18 -7 -13 -8 -29 -3 -37 7 -10
9 -9 9 3 0 24 28 31 39 11 9 -15 12 -13 23 15 9 24 17 31 29 28 13 -4 18 2 21
25 5 33 -15 62 -25 36z"/>
<path d="M4185 2930 c-3 -6 3 -23 14 -38 20 -28 20 -29 0 -45 -27 -24 -24 -34
10 -33 22 1 31 7 34 24 2 12 0 25 -5 28 -5 4 -7 18 -3 32 8 33 -33 60 -50 32z"/>
<path d="M5650 2904 c0 -8 5 -12 10 -9 6 3 10 10 10 16 0 5 -4 9 -10 9 -5 0
-10 -7 -10 -16z"/>
<path d="M4650 2890 c0 -5 -6 -10 -14 -10 -22 0 -27 -16 -15 -44 13 -27 29
-35 30 -13 0 6 2 27 3 45 2 17 2 32 0 32 -2 0 -4 -4 -4 -10z"/>
<path d="M3485 2869 c-11 -17 -2 -18 19 -3 17 12 17 14 4 14 -9 0 -20 -5 -23
-11z"/>
<path d="M3545 2870 c-3 -5 -2 -10 4 -10 5 0 13 5 16 10 3 6 2 10 -4 10 -5 0
-13 -4 -16 -10z"/>
<path d="M4890 2866 c0 -9 5 -16 10 -16 6 0 10 4 10 9 0 6 -4 13 -10 16 -5 3
-10 -1 -10 -9z"/>
<path d="M5196 2864 c-4 -9 -4 -19 -1 -22 2 -3 7 3 11 12 4 9 4 19 1 22 -2 3
-7 -3 -11 -12z"/>
<path d="M5670 2871 c0 -6 10 -8 21 -6 33 6 36 15 6 15 -15 0 -27 -4 -27 -9z"/>
<path d="M4086 2861 c-3 -5 1 -11 9 -15 8 -3 15 -1 15 4 0 13 -18 22 -24 11z"/>
<path d="M4695 2857 c-4 -10 -5 -21 -1 -24 10 -10 18 4 13 24 -4 17 -4 17 -12
0z"/>
<path d="M5220 2860 c0 -5 3 -11 8 -11 37 -7 52 -5 52 7 0 8 -4 14 -10 14 -5
0 -10 -5 -10 -10 0 -7 -6 -7 -20 0 -14 7 -20 7 -20 0z"/>
<path d="M4300 2850 c0 -5 4 -10 9 -10 6 0 13 5 16 10 3 6 -1 10 -9 10 -9 0
-16 -4 -16 -10z"/>
<path d="M5285 2831 c-3 -5 -1 -12 5 -16 12 -7 30 2 30 16 0 12 -27 12 -35 0z"/>
<path d="M5552 2820 c0 -14 2 -19 5 -12 2 6 2 18 0 25 -3 6 -5 1 -5 -13z"/>
<path d="M4810 2820 c-9 -6 -10 -10 -3 -10 6 0 15 5 18 10 8 12 4 12 -15 0z"/>
<path d="M3400 2805 c0 -11 7 -15 23 -13 12 2 22 8 22 13 0 6 -10 11 -22 13
-16 2 -23 -2 -23 -13z"/>
<path d="M5074 2808 c3 -15 26 -23 26 -8 0 6 -4 9 -9 6 -5 -4 -12 -1 -14 4 -3
6 -4 5 -3 -2z"/>
<path d="M4197 2803 c-10 -9 -9 -23 2 -23 5 0 11 7 15 15 5 15 -5 20 -17 8z"/>
<path d="M4300 2800 c0 -5 7 -10 15 -10 8 0 15 5 15 10 0 6 -7 10 -15 10 -8 0
-15 -4 -15 -10z"/>
<path d="M4940 2789 c0 -18 2 -19 15 -5 8 8 15 17 15 20 0 3 -7 6 -15 6 -9 0
-15 -9 -15 -21z"/>
<path d="M5224 2788 c-3 -4 6 -8 20 -8 14 0 26 4 26 8 0 4 -9 8 -21 8 -11 0
-23 -4 -25 -8z"/>
<path d="M5773 2763 c-15 -5 -18 -24 -4 -20 5 1 16 -6 23 -15 9 -13 17 -15 28
-8 13 8 12 10 -2 10 -11 0 -18 8 -18 20 0 20 -5 23 -27 13z"/>
<path d="M4870 2740 c0 -5 5 -10 10 -10 6 0 10 5 10 10 0 6 -4 10 -10 10 -5 0
-10 -4 -10 -10z"/>
</g>
</svg>
